<?xml version="1.0" encoding="UTF-8"?>
<!DOCTYPE svg PUBLIC "-//W3C//DTD SVG 1.1//EN" "http://www.w3.org/Graphics/SVG/1.1/DTD/svg11.dtd">
<!-- Creator: CorelDRAW X7 -->
<svg xmlns="http://www.w3.org/2000/svg" xml:space="preserve" width="64.9516mm" height="63.3278mm" version="1.1" style="shape-rendering:geometricPrecision; text-rendering:geometricPrecision; image-rendering:optimizeQuality; fill-rule:evenodd; clip-rule:evenodd"
viewBox="0 0 6495 6333"
 xmlns:xlink="http://www.w3.org/1999/xlink">
 <defs>
  <style type="text/css">
   <![CDATA[
    .fil0 {fill:#001E36}
    .fil1 {fill:#31A8FF}
   ]]>
  </style>
 </defs>
 <g id="Layer_x0020_1">
  <metadata id="CorelCorpID_0Corel-Layer"/>
  <g id="Layer_2_1_">
   <g id="Surfaces">
    <g id="Photo_Surface">
     <g id="Outline_no_shadow">
      <path class="fil0" d="M1150 0l4195 0c636,0 1150,514 1150,1150l0 4033c0,636 -514,1150 -1150,1150l-4195 0c-636,0 -1150,-514 -1150,-1150l0 -4033c0,-636 514,-1150 1150,-1150z"/>
     </g>
    </g>
   </g>
   <g id="Outlined_Mnemonics_Logos">
    <g id="Ps">
     <path class="fil1" d="M1461 4441l0 -2785c0,-19 9,-30 27,-30 46,0 90,0 152,-2 65,-3 133,-3 206,-6 73,-2 151,-2 235,-5 84,-3 165,-3 246,-3 222,0 406,27 558,84 135,46 260,122 363,222 86,87 154,192 197,309 41,113 62,230 62,351 0,233 -54,425 -162,577 -108,151 -260,265 -436,330 -184,68 -387,92 -609,92 -65,0 -108,0 -135,-3 -27,-2 -65,-2 -116,-2l0 868c2,19 -11,36 -30,38 -3,0 -5,0 -11,0l-514 0c-22,0 -33,-11 -33,-35zm590 -2292l0 909c38,3 73,6 106,6l143 0c106,0 211,-17 312,-49 86,-25 162,-76 222,-144 56,-67 83,-159 83,-278 3,-84 -19,-168 -62,-241 -46,-71 -111,-125 -189,-154 -100,-41 -209,-57 -320,-55 -70,0 -132,0 -184,3 -54,-3 -92,0 -111,3l0 0z"/>
     <path class="fil1" d="M5196 2893c-81,-43 -168,-73 -260,-92 -100,-22 -200,-35 -303,-35 -54,-3 -111,5 -162,19 -35,8 -65,27 -84,54 -14,22 -22,49 -22,73 0,24 11,49 27,70 25,30 57,54 92,73 63,33 128,63 193,90 146,48 286,116 416,197 90,57 163,133 214,225 43,87 65,181 62,279 3,127 -35,254 -105,360 -76,108 -182,192 -303,240 -133,57 -295,87 -490,87 -125,0 -246,-11 -368,-35 -95,-16 -190,-46 -276,-87 -19,-11 -33,-29 -30,-51l0 -471c0,-8 3,-19 11,-24 8,-6 16,-3 24,2 106,63 217,106 336,133 103,27 211,41 319,41 103,0 176,-14 225,-38 43,-19 73,-65 73,-114 0,-38 -22,-73 -65,-108 -43,-35 -133,-76 -265,-127 -138,-49 -266,-114 -385,-195 -84,-60 -154,-138 -205,-230 -44,-87 -65,-182 -63,-276 0,-117 33,-228 92,-328 68,-108 168,-195 285,-249 127,-65 286,-95 479,-95 111,0 224,9 335,25 81,11 160,32 233,62 11,3 22,14 27,24 3,11 5,22 5,33l0 441c0,11 -5,22 -13,27 -25,5 -38,5 -49,0z"/>
    </g>
   </g>
  </g>
 </g>
</svg>
