<?xml version="1.0" encoding="UTF-8"?>
<!DOCTYPE svg PUBLIC "-//W3C//DTD SVG 1.1//EN" "http://www.w3.org/Graphics/SVG/1.1/DTD/svg11.dtd">
<!-- Creator: CorelDRAW X7 -->
<svg xmlns="http://www.w3.org/2000/svg" xml:space="preserve" width="43.4814mm" height="59.8165mm" version="1.1" style="shape-rendering:geometricPrecision; text-rendering:geometricPrecision; image-rendering:optimizeQuality; fill-rule:evenodd; clip-rule:evenodd"
viewBox="0 0 4349 5982"
 xmlns:xlink="http://www.w3.org/1999/xlink">
 <defs>
  <style type="text/css">
   <![CDATA[
    .fil5 {fill:#00863F}
    .fil1 {fill:#008A5A}
    .fil2 {fill:#009550}
    .fil3 {fill:#00983E}
    .fil4 {fill:#009A37}
    .fil6 {fill:#06CBF6}
    .fil0 {fill:#2AC64B}
    .fil8 {fill:#666565}
    .fil12 {fill:#97CC1A}
    .fil10 {fill:url(#id0)}
    .fil14 {fill:url(#id1)}
    .fil16 {fill:url(#id2)}
    .fil11 {fill:url(#id3)}
    .fil17 {fill:url(#id4)}
    .fil9 {fill:url(#id5)}
    .fil7 {fill:url(#id6)}
    .fil18 {fill:url(#id7)}
    .fil15 {fill:url(#id8)}
    .fil13 {fill:url(#id9)}
   ]]>
  </style>
  <linearGradient id="id0" gradientUnits="userSpaceOnUse" x1="1105.77" y1="2225.7" x2="265.252" y2="4303.4">
   <stop offset="0" style="stop-opacity:1; stop-color:#CB1918"/>
   <stop offset="0.388235" style="stop-opacity:1; stop-color:#A2183D"/>
   <stop offset="0.74902" style="stop-opacity:1; stop-color:#902869"/>
   <stop offset="1" style="stop-opacity:1; stop-color:#73358A"/>
  </linearGradient>
  <linearGradient id="id1" gradientUnits="userSpaceOnUse" x1="2648.62" y1="4675.53" x2="2409.68" y2="5077.74">
   <stop offset="0" style="stop-opacity:1; stop-color:#E1282B"/>
   <stop offset="0.388235" style="stop-opacity:1; stop-color:#E3402A"/>
   <stop offset="0.701961" style="stop-opacity:1; stop-color:#E76226"/>
   <stop offset="1" style="stop-opacity:1; stop-color:#F19A0A"/>
  </linearGradient>
  <linearGradient id="id2" gradientUnits="userSpaceOnUse" xlink:href="#id1" x1="2453.51" y1="3672.07" x2="1744.31" y2="4866.78">
  </linearGradient>
  <linearGradient id="id3" gradientUnits="userSpaceOnUse" xlink:href="#id0" x1="1841.17" y1="3084.55" x2="1630.13" y2="3603.93">
  </linearGradient>
  <linearGradient id="id4" gradientUnits="userSpaceOnUse" xlink:href="#id1" x1="1909.22" y1="4261.61" x2="1467.04" y2="5005.28">
  </linearGradient>
  <linearGradient id="id5" gradientUnits="userSpaceOnUse" xlink:href="#id0" x1="1303.8" y1="2380.81" x2="592.469" y2="4140.81">
  </linearGradient>
  <linearGradient id="id6" gradientUnits="userSpaceOnUse" x1="1116.62" y1="423.715" x2="3959.65" y2="334.268">
   <stop offset="0" style="stop-opacity:1; stop-color:#0288F7"/>
   <stop offset="1" style="stop-opacity:1; stop-color:#2EE2BD"/>
  </linearGradient>
  <linearGradient id="id7" gradientUnits="userSpaceOnUse" xlink:href="#id1" x1="1726.2" y1="4573.01" x2="1432.33" y2="5069.52">
  </linearGradient>
  <linearGradient id="id8" gradientUnits="userSpaceOnUse" xlink:href="#id1" x1="2714.25" y1="4866.28" x2="2570.01" y2="5110.68">
  </linearGradient>
  <linearGradient id="id9" gradientUnits="userSpaceOnUse" x1="3549.73" y1="4506.99" x2="2149.81" y2="2977.62">
   <stop offset="0" style="stop-opacity:1; stop-color:#ADD816"/>
   <stop offset="1" style="stop-opacity:1; stop-color:#DBD704"/>
  </linearGradient>
 </defs>
 <g id="Layer_x0020_1">
  <metadata id="CorelCorpID_0Corel-Layer"/>
  <g id="_3087332230128">
   <path class="fil0" d="M213 2019c-72,-33 -136,-59 -187,-79 -11,-81 -19,-162 -24,-244 -4,-67 -1,-134 6,-198 45,7 107,18 184,33 -8,92 -9,189 0,292 5,66 12,131 21,196zm723 426c-185,-135 -358,-241 -509,-321 -30,-188 -44,-374 -33,-551 140,30 305,70 486,121 -11,236 11,492 56,751l0 0zm1898 99c-3,20 -5,41 -7,62 -252,132 -504,310 -730,549 -72,77 -139,155 -199,233 -69,-87 -142,-174 -220,-262 -34,-40 -68,-78 -104,-114 -58,-389 -95,-773 -101,-1132 449,159 933,376 1361,664z"/>
   <path class="fil1" d="M269 1153c-38,115 -65,240 -77,378 -77,-15 -139,-26 -184,-33 6,-41 13,-82 22,-122 55,-59 135,-138 239,-223l0 0z"/>
   <path class="fil2" d="M1148 658c-133,244 -240,572 -266,1010 0,9 -1,17 -2,26 -181,-51 -346,-91 -485,-121 0,-6 1,-11 1,-17 17,-231 85,-441 188,-628 158,-98 346,-193 564,-270z"/>
   <path class="fil3" d="M2834 2544c-428,-288 -912,-505 -1361,-664 -9,-428 24,-822 113,-1148 2,-9 5,-18 7,-26 356,210 821,445 1262,548 38,388 27,831 -21,1290l0 0 0 0z"/>
   <path class="fil4" d="M4347 1696c-12,181 -37,360 -77,539 -51,2 -110,5 -175,11 29,-138 50,-280 62,-423 38,-484 -118,-853 -299,-1109 53,15 103,30 150,44 203,257 360,588 339,938zm-452 573c-142,21 -302,52 -470,101 39,-244 55,-481 42,-702 -31,-504 -168,-864 -329,-1115 151,25 295,54 427,85 211,249 360,560 387,918 17,227 -7,470 -57,713l0 0z"/>
   <path class="fil5" d="M2855 1254c-441,-103 -906,-338 -1262,-548 19,-66 40,-125 63,-179 65,-11 132,-20 202,-27 278,-29 556,-26 821,-4 31,69 60,147 84,236 43,159 73,334 92,522l0 0z"/>
   <path class="fil6" d="M952 260c-15,9 -489,301 -683,893 -104,85 -184,164 -239,223 129,-558 643,-1015 922,-1116l0 0zm299 231c-36,51 -70,106 -103,167 -218,77 -406,172 -564,270 121,-222 292,-412 484,-563 45,33 108,76 183,126l0 0z"/>
   <path class="fil7" d="M4008 758c-47,-14 -97,-29 -150,-44 -214,-305 -462,-454 -462,-454 165,60 411,243 612,498l0 0zm-443 -120c-132,-31 -275,-60 -426,-85 -272,-427 -612,-547 -629,-553 366,73 767,299 1055,638l0 0zm-886 -142c-265,-22 -543,-25 -821,4 -70,7 -137,16 -202,27 195,-461 514,-527 514,-527l9 0c0,0 304,63 500,496zm-840 -496c-16,5 -324,115 -588,491 -75,-50 -138,-93 -183,-126 240,-187 514,-313 771,-365l0 0z"/>
   <polygon class="fil8" points="2174,5982 2501,5982 2622,5455 1726,5455 1848,5982 "/>
  </g>
  <path class="fil9" d="M939 3620c63,129 124,245 175,343 89,165 173,306 260,434 25,-87 56,-180 95,-276 -67,-155 -135,-321 -199,-494 -140,-376 -264,-784 -334,-1182 -185,-135 -358,-241 -509,-321 86,534 314,1085 512,1496l0 0z"/>
  <path class="fil10" d="M644 3613c36,62 73,124 111,188 180,294 387,566 572,787 5,-27 11,-54 18,-83 -74,-102 -148,-206 -210,-303 -90,-138 -220,-339 -355,-586 -233,-423 -481,-982 -567,-1597 -72,-33 -136,-59 -187,-78 74,551 285,1092 618,1672l0 0 0 0z"/>
  <path class="fil11" d="M1607 3217c23,139 50,280 80,419 3,14 6,27 8,41 59,-95 126,-192 202,-289 -70,-89 -143,-177 -219,-262 -34,-40 -69,-78 -104,-114 10,68 21,136 33,205l0 0z"/>
  <path class="fil12" d="M4095 2246c-83,404 -229,778 -385,1098 31,31 62,63 92,94 222,-413 380,-807 468,-1203 -51,2 -110,5 -175,11l0 0zm-670 124c-31,192 -74,389 -127,583 91,83 191,176 290,271 123,-295 239,-625 307,-955 -142,21 -301,52 -470,101l0 0 0 0z"/>
  <path class="fil13" d="M2097 3155c-72,77 -139,155 -199,233 265,335 462,654 605,921 52,-200 106,-423 154,-650 32,-147 60,-296 85,-442 34,-205 63,-410 85,-611 -252,132 -504,309 -730,549l0 0zm1613 189c-6,12 -12,24 -18,37 -177,355 -361,641 -479,821 -135,208 -316,451 -461,638 5,14 11,27 15,39 224,-244 557,-636 826,-1078 68,-111 131,-221 190,-329 7,-11 13,-23 19,-34 -30,-31 -61,-63 -92,-94l0 0 0 0zm-412 -391l-8 26c-171,618 -432,1216 -638,1629 22,49 43,95 60,137 191,-227 348,-457 523,-782 96,-180 219,-424 338,-702l15 -37c-99,-95 -199,-188 -290,-271l0 0z"/>
  <path class="fil14" d="M2346 5146c139,-144 259,-272 366,-401 -17,-42 -38,-88 -60,-137 -146,292 -265,491 -306,538l0 0z"/>
  <path class="fil15" d="M2517 5137c8,-7 106,-102 250,-259 -4,-11 -10,-24 -15,-38 -129,167 -227,288 -235,297z"/>
  <path class="fil16" d="M1695 3677c164,769 390,1475 390,1475l179 0c0,0 113,-359 239,-843 -143,-267 -340,-586 -605,-922 -77,98 -144,194 -203,290l0 0z"/>
  <path class="fil17" d="M1374 4397c179,268 369,480 628,749 -60,-69 -294,-476 -533,-1025 -39,96 -70,189 -95,276l0 0 0 0z"/>
  <path class="fil18" d="M1327 4587c271,326 493,539 505,550 -12,-15 -258,-315 -487,-632 -7,29 -13,56 -18,82l0 0z"/>
 </g>
</svg>
