<?xml version="1.0" encoding="UTF-8"?>
<!DOCTYPE svg PUBLIC "-//W3C//DTD SVG 1.1//EN" "http://www.w3.org/Graphics/SVG/1.1/DTD/svg11.dtd">
<!-- Creator: CorelDRAW X7 -->
<svg xmlns="http://www.w3.org/2000/svg" xml:space="preserve" width="75.6442mm" height="75.6442mm" version="1.1" style="shape-rendering:geometricPrecision; text-rendering:geometricPrecision; image-rendering:optimizeQuality; fill-rule:evenodd; clip-rule:evenodd"
viewBox="0 0 7564 7564"
 xmlns:xlink="http://www.w3.org/1999/xlink">
 <defs>
  <style type="text/css">
   <![CDATA[
    .fil1 {fill:black}
    .fil0 {fill:#F7DF1E}
   ]]>
  </style>
 </defs>
 <g id="Layer_x0020_1">
  <metadata id="CorelCorpID_0Corel-Layer"/>
  <rect class="fil0" width="7564" height="7564"/>
  <path class="fil1" d="M5081 5910c153,249 351,431 702,431 294,0 482,-147 482,-350 0,-244 -193,-330 -517,-472l-178 -76c-513,-219 -854,-493 -854,-1071 0,-533 407,-939 1041,-939 452,0 777,157 1011,569l-553 355c-122,-218 -254,-304 -458,-304 -208,0 -340,132 -340,304 0,213 132,300 437,432l178 76c604,259 945,523 945,1117 0,640 -503,990 -1178,990 -660,0 -1087,-314 -1295,-727l577 -335zm-2511 61c112,198 214,366 458,366 233,0 381,-91 381,-447l0 -2417 710 0 0 2427c0,736 -431,1071 -1061,1071 -569,0 -899,-295 -1066,-649l578 -351z"/>
 </g>
</svg>
